<svg width="26" height="26" viewBox="0 0 26 26" fill="none" xmlns="http://www.w3.org/2000/svg">
<path d="M23.9012 2.72135V1.67041H2.88245V2.72135H1.83151V23.7401H2.88245V24.7911H23.9012V23.7401H24.9522V2.72135H23.9012ZM19.6975 10.0779H18.6465V11.1289H17.5956V12.1798H16.5447V14.2817H17.5956V15.3326H18.6465V16.3836H19.6975V17.4345H18.6465V18.4854H17.5956V19.5364H16.5447V18.4854H15.4937V17.4345H14.4428V16.3836H12.3409V17.4345H11.29V18.4854H10.239V19.5364H9.18808V18.4854H8.13715V17.4345H7.08621V16.3836H8.13715V15.3326H9.18808V14.2817H10.239V12.1798H9.18808V11.1289H8.13715V10.0779H7.08621V9.02698H8.13715V7.97604H9.18808V6.9251H10.239V7.97604H11.29V9.02698H12.3409V10.0779H14.4428V9.02698H15.4937V7.97604H16.5447V6.9251H17.5956V7.97604H18.6465V9.02698H19.6975V10.0779Z" fill="#878787"/>
</svg>
