<svg width="27" height="19" viewBox="0 0 27 19" fill="none" xmlns="http://www.w3.org/2000/svg">
<path d="M25.0249 9.25067V8.06311H22.6498V5.68799H21.4622V4.50043H20.2747V3.31287H16.712V4.50043H15.5244V2.12531H14.3369V0.937744H8.39905V2.12531H7.21149V3.31287H6.02393V4.50043H4.83636V8.06311H1.27368V9.25067H0.0861206V15.1885H1.27368V16.376H2.46124V17.5636H4.83636V18.7512H21.4622V17.5636H23.8373V16.376H25.0249V15.1885H26.2125V9.25067H25.0249ZM9.58661 11.6258H6.02393V10.4382H7.21149V9.25067H8.39905V8.06311H9.58661V6.87555H10.7742V5.68799H11.9617V6.87555H13.1493V8.06311H14.3369V9.25067H15.5244V10.4382H16.712V11.6258H13.1493V16.376H9.58661V11.6258Z" fill="white"/>
</svg>
