<svg width="44" height="44" viewBox="0 0 44 44" fill="none" xmlns="http://www.w3.org/2000/svg">
<path d="M40 20V16H38V12H36V10H34V8H32V6H28V4H24V0H20V4H16V6H12V8H10V10H8V12H6V16H4V20H0V24H4V28H6V32H8V34H10V36H12V38H16V40H20V44H24V40H28V38H32V36H34V34H36V32H38V28H40V24H44V20H40ZM20 36H18V34H14V32H12V30H10V28H8V16H10V18H12V20H14V22H18V24H20V36ZM18 20V18H14V16H12V14H10V12H14V10H18V8H26V10H30V12H34V14H32V16H30V18H26V20H18ZM36 28H34V30H32V32H30V34H26V36H24V24H26V22H30V20H32V18H34V16H36V28Z" fill="black"/>
</svg>
