<svg width="48" height="49" viewBox="0 0 48 49" fill="none" xmlns="http://www.w3.org/2000/svg">
<path d="M32 22.1677V26.1677H30V28.1677H28V30.1677H26V32.1677H22V30.1677H20V28.1677H18V26.1677H16V22.1677H20V20.1677H22V16.1677H26V18.1677H28V20.1677H30V22.1677H32Z" fill="black"/>
<path d="M44 22.1677V18.1677H42V16.1677H40V14.1677H38V12.1677H34V10.1677H14V12.1677H10V14.1677H8V16.1677H6V18.1677H4V22.1677H2V26.1677H4V30.1677H6V32.1677H8V34.1677H10V36.1677H14V38.1677H34V36.1677H38V34.1677H40V32.1677H42V30.1677H44V26.1677H46V22.1677H44ZM36 26.1677H34V30.1677H32V32.1677H30V34.1677H26V36.1677H22V34.1677H18V32.1677H16V30.1677H14V26.1677H12V22.1677H14V18.1677H16V16.1677H18V14.1677H22V12.1677H26V14.1677H30V16.1677H32V18.1677H34V22.1677H36V26.1677Z" fill="black"/>
</svg>
