<svg width="26" height="26" viewBox="0 0 26 26" fill="none" xmlns="http://www.w3.org/2000/svg">
<path d="M23.7742 21.6383V20.5873H22.7232V19.5364H21.6723V18.4854H20.6214V17.4345H18.5195V16.3836H19.5704V14.2817H20.6214V7.97604H19.5704V5.87417H18.5195V4.82323H17.4686V3.77229H16.4176V2.72135H14.3157V1.67041H8.0101V2.72135H5.90822V3.77229H4.85728V4.82323H3.80635V5.87417H2.75541V7.97604H1.70447V14.2817H2.75541V16.3836H3.80635V17.4345H4.85728V18.4854H5.90822V19.5364H8.0101V20.5873H14.3157V19.5364H16.4176V18.4854H17.4686V20.5873H18.5195V21.6383H19.5704V22.6892H20.6214V23.7401H21.6723V24.7911H23.7742V23.7401H24.8251V21.6383H23.7742ZM13.2648 16.3836V17.4345H9.06104V16.3836H6.95916V15.3326H5.90822V13.2307H4.85728V9.02698H5.90822V6.92511H6.95916V5.87417H9.06104V4.82323H13.2648V5.87417H15.3667V6.92511H16.4176V9.02698H17.4686V13.2307H16.4176V15.3326H15.3667V16.3836H13.2648Z" fill="white"/>
</svg>
