<svg width="26" height="26" viewBox="0 0 26 26" fill="none" xmlns="http://www.w3.org/2000/svg">
<path d="M24.3036 22.4458V21.3H23.1578V20.1542H22.0121V19.0085H20.8663V17.8627H18.5748V16.7169H19.7205V14.4254H20.8663V7.55077H19.7205V5.25923H18.5748V4.11346H17.429V2.96769H16.2832V1.82192H13.9917V0.676147H7.11705V1.82192H4.82551V2.96769H3.67974V4.11346H2.53397V5.25923H1.3882V7.55077H0.242432V14.4254H1.3882V16.7169H2.53397V17.8627H3.67974V19.0085H4.82551V20.1542H7.11705V21.3H13.9917V20.1542H16.2832V19.0085H17.429V21.3H18.5748V22.4458H19.7205V23.5916H20.8663V24.7373H22.0121V25.8831H24.3036V24.7373H25.4494V22.4458H24.3036ZM12.8459 16.7169V17.8627H8.26282V16.7169H5.97128V15.5712H4.82551V13.2796H3.67974V8.69654H4.82551V6.405H5.97128V5.25923H8.26282V4.11346H12.8459V5.25923H15.1374V6.405H16.2832V8.69654H17.429V13.2796H16.2832V15.5712H15.1374V16.7169H12.8459Z" fill="black"/>
</svg>
