<svg width="783" height="361" viewBox="0 0 783 361" fill="none" xmlns="http://www.w3.org/2000/svg">
<g id="PASAR_OWI Contoh" clip-path="url(#clip0_315_66)">
<g id="DENAH">
<g id="PasarOwi_L001">
<rect id="PasarOwi_L001" x="10" y="0.445862" width="119.33" height="71.165" rx="8" fill="#9FFDFF"/>
<path id="ID" d="M48.6008 41.5284V31.3466H50.137V40.2059H54.7506V41.5284H48.6008ZM59.5842 31.3466V41.5284H58.0431V32.8878H57.9834L55.5473 34.4787V33.0071L58.0878 31.3466H59.5842ZM67.8122 41.5284V42.7912H61.3442V41.5284H67.8122ZM71.6801 41.6974C70.8946 41.6941 70.2235 41.487 69.6666 41.076C69.1098 40.665 68.6839 40.0667 68.3889 39.2812C68.094 38.4957 67.9465 37.5495 67.9465 36.4424C67.9465 35.3388 68.094 34.3958 68.3889 33.6136C68.6872 32.8314 69.1148 32.2348 69.6716 31.8238C70.2317 31.4129 70.9012 31.2074 71.6801 31.2074C72.459 31.2074 73.1269 31.4145 73.6837 31.8288C74.2405 32.2398 74.6664 32.8364 74.9614 33.6186C75.2597 34.3975 75.4088 35.3388 75.4088 36.4424C75.4088 37.5528 75.2613 38.5007 74.9663 39.2862C74.6714 40.0684 74.2455 40.6666 73.6886 41.0809C73.1318 41.4919 72.4623 41.6974 71.6801 41.6974ZM71.6801 40.37C72.3695 40.37 72.9081 40.0336 73.2959 39.3608C73.687 38.6879 73.8825 37.7152 73.8825 36.4424C73.8825 35.5973 73.7931 34.883 73.6141 34.2997C73.4384 33.713 73.1849 33.2689 72.8534 32.9673C72.5253 32.6624 72.1342 32.5099 71.6801 32.5099C70.994 32.5099 70.4555 32.848 70.0644 33.5241C69.6733 34.2003 69.4761 35.173 69.4727 36.4424C69.4727 37.2909 69.5606 38.0085 69.7362 38.5951C69.9152 39.1785 70.1688 39.6209 70.4969 39.9226C70.825 40.2209 71.2194 40.37 71.6801 40.37ZM80.7172 41.6974C79.9317 41.6941 79.2606 41.487 78.7037 41.076C78.1469 40.665 77.721 40.0667 77.426 39.2812C77.1311 38.4957 76.9836 37.5495 76.9836 36.4424C76.9836 35.3388 77.1311 34.3958 77.426 33.6136C77.7243 32.8314 78.1519 32.2348 78.7087 31.8238C79.2688 31.4129 79.9384 31.2074 80.7172 31.2074C81.4961 31.2074 82.164 31.4145 82.7208 31.8288C83.2776 32.2398 83.7035 32.8364 83.9985 33.6186C84.2968 34.3975 84.4459 35.3388 84.4459 36.4424C84.4459 37.5528 84.2984 38.5007 84.0035 39.2862C83.7085 40.0684 83.2826 40.6666 82.7258 41.0809C82.1689 41.4919 81.4994 41.6974 80.7172 41.6974ZM80.7172 40.37C81.4066 40.37 81.9452 40.0336 82.333 39.3608C82.7241 38.6879 82.9197 37.7152 82.9197 36.4424C82.9197 35.5973 82.8302 34.883 82.6512 34.2997C82.4755 33.713 82.222 33.2689 81.8905 32.9673C81.5624 32.6624 81.1713 32.5099 80.7172 32.5099C80.0312 32.5099 79.4926 32.848 79.1015 33.5241C78.7104 34.2003 78.5132 35.173 78.5098 36.4424C78.5098 37.2909 78.5977 38.0085 78.7733 38.5951C78.9523 39.1785 79.2059 39.6209 79.534 39.9226C79.8621 40.2209 80.2565 40.37 80.7172 40.37ZM90.0725 31.3466V41.5284H88.5313V32.8878H88.4717L86.0356 34.4787V33.0071L88.5761 31.3466H90.0725Z" fill="black" fill-opacity="0.8"/>
</g>
<g id="PasarOwi_L001_2">
<rect id="[NAMA PASAR]_[ID]_2" x="518.35" width="119.724" height="60" rx="8" stroke="black" stroke-width="3" stroke-dasharray="8 8"/>
<path id="ID_2" d="M523.1 34V23.5H523.114L528.518 31.158L527.874 31.018L533.25 23.5H533.278V34H531.794V26.874L531.892 27.644L528.14 32.95H528.112L524.29 27.644L524.542 26.944V34H523.1ZM535.093 34L539.559 23.43H539.643L544.109 34H542.401L539.153 25.768L540.231 25.054L536.563 34H535.093ZM537.809 30.192H541.421L541.939 31.48H537.361L537.809 30.192ZM551.224 25.782C550.869 25.5953 550.486 25.4367 550.076 25.306C549.665 25.1753 549.268 25.11 548.886 25.11C548.363 25.11 547.948 25.2313 547.64 25.474C547.332 25.7073 547.178 26.0293 547.178 26.44C547.178 26.7293 547.28 26.9813 547.486 27.196C547.691 27.4107 547.957 27.5973 548.284 27.756C548.61 27.9147 548.956 28.064 549.32 28.204C549.628 28.316 549.931 28.4513 550.23 28.61C550.538 28.7593 550.813 28.946 551.056 29.17C551.308 29.394 551.504 29.674 551.644 30.01C551.793 30.3367 551.868 30.738 551.868 31.214C551.868 31.7553 551.732 32.2453 551.462 32.684C551.2 33.1227 550.818 33.4727 550.314 33.734C549.819 33.986 549.217 34.112 548.508 34.112C548.078 34.112 547.658 34.0653 547.248 33.972C546.846 33.8693 546.464 33.7387 546.1 33.58C545.745 33.412 545.423 33.23 545.134 33.034L545.806 31.872C546.03 32.0307 546.286 32.1847 546.576 32.334C546.865 32.474 547.164 32.586 547.472 32.67C547.789 32.754 548.088 32.796 548.368 32.796C548.676 32.796 548.979 32.7447 549.278 32.642C549.576 32.53 549.824 32.362 550.02 32.138C550.216 31.9047 550.314 31.6013 550.314 31.228C550.314 30.9107 550.225 30.6447 550.048 30.43C549.88 30.206 549.651 30.0147 549.362 29.856C549.082 29.6973 548.778 29.5573 548.452 29.436C548.134 29.3147 547.812 29.1793 547.486 29.03C547.159 28.8807 546.856 28.7033 546.576 28.498C546.296 28.2833 546.067 28.022 545.89 27.714C545.722 27.3967 545.638 27.0093 545.638 26.552C545.638 26.0107 545.764 25.5393 546.016 25.138C546.277 24.7273 546.636 24.4053 547.094 24.172C547.551 23.9387 548.078 23.808 548.676 23.78C549.357 23.78 549.95 23.864 550.454 24.032C550.958 24.2 551.406 24.4007 551.798 24.634L551.224 25.782ZM555.424 30.374C555.424 30.8033 555.531 31.1907 555.746 31.536C555.961 31.8813 556.245 32.1567 556.6 32.362C556.955 32.5673 557.351 32.67 557.79 32.67C558.257 32.67 558.672 32.5673 559.036 32.362C559.4 32.1567 559.685 31.8813 559.89 31.536C560.105 31.1907 560.212 30.8033 560.212 30.374V23.836H561.682V30.416C561.682 31.1533 561.509 31.802 561.164 32.362C560.819 32.9127 560.352 33.342 559.764 33.65C559.176 33.958 558.518 34.112 557.79 34.112C557.081 34.112 556.432 33.958 555.844 33.65C555.256 33.342 554.789 32.9127 554.444 32.362C554.108 31.802 553.94 31.1533 553.94 30.416V23.836H555.424V30.374ZM565.901 27.84L565.859 28.344L566.069 28.05L570.045 23.836H571.977L567.777 28.246L572.173 34H570.283L566.685 29.184L565.901 29.954V34H564.389V23.836H565.901V27.84ZM578.019 23.542C577.366 25.334 576.708 27.1213 576.045 28.904C575.392 30.6867 574.734 32.474 574.071 34.266H572.769C573.432 32.474 574.09 30.6867 574.743 28.904C575.406 27.1213 576.064 25.334 576.717 23.542H578.019ZM580.953 27.84L580.911 28.344L581.121 28.05L585.097 23.836H587.029L582.829 28.246L587.225 34H585.335L581.737 29.184L580.953 29.954V34H579.441V23.836H580.953V27.84ZM589.012 23.836H595.69V25.278H590.51V28.176H595.116V29.618H590.51V32.558H595.886V34H589.012V23.836ZM598.186 23.836H599.684V32.558H604.766V34H598.186V23.836ZM608.293 30.374C608.293 30.8033 608.401 31.1907 608.615 31.536C608.83 31.8813 609.115 32.1567 609.469 32.362C609.824 32.5673 610.221 32.67 610.659 32.67C611.126 32.67 611.541 32.5673 611.905 32.362C612.269 32.1567 612.554 31.8813 612.759 31.536C612.974 31.1907 613.081 30.8033 613.081 30.374V23.836H614.551V30.416C614.551 31.1533 614.379 31.802 614.033 32.362C613.688 32.9127 613.221 33.342 612.633 33.65C612.045 33.958 611.387 34.112 610.659 34.112C609.95 34.112 609.301 33.958 608.713 33.65C608.125 33.342 607.659 32.9127 607.313 32.362C606.977 31.802 606.809 31.1533 606.809 30.416V23.836H608.293V30.374ZM616.03 34L620.496 23.43H620.58L625.046 34H623.338L620.09 25.768L621.168 25.054L617.5 34H616.03ZM618.746 30.192H622.358L622.876 31.48H618.298L618.746 30.192ZM629.655 23.836C630.187 23.836 630.677 23.9107 631.125 24.06C631.583 24.2 631.97 24.4053 632.287 24.676C632.614 24.9467 632.866 25.2827 633.043 25.684C633.23 26.076 633.323 26.5333 633.323 27.056C633.323 27.4573 633.263 27.854 633.141 28.246C633.02 28.638 632.824 28.9927 632.553 29.31C632.283 29.6273 631.928 29.884 631.489 30.08C631.051 30.2667 630.505 30.36 629.851 30.36H628.367V34H626.869V23.836H629.655ZM629.823 28.932C630.206 28.932 630.523 28.8713 630.775 28.75C631.037 28.6287 631.237 28.4793 631.377 28.302C631.527 28.1153 631.629 27.9193 631.685 27.714C631.751 27.4993 631.783 27.294 631.783 27.098C631.783 26.9113 631.751 26.7153 631.685 26.51C631.629 26.3047 631.527 26.1087 631.377 25.922C631.237 25.7353 631.046 25.5813 630.803 25.46C630.561 25.3387 630.262 25.278 629.907 25.278H628.367V28.932H629.823ZM631.545 29.8L634.177 34H632.441L629.767 29.842L631.545 29.8Z" fill="black"/>
</g>
<rect id="PasarOwi_L006" x="12.4217" y="128.76" width="128.876" height="107.201" rx="7.2" fill="#D9D9D9"/>
<rect id="PasarOwi_L008" x="167.88" y="174.005" width="143.195" height="33.4894" rx="7.2" fill="#D9D9D9"/>
<rect id="PasarOwi_L007" x="167.88" y="128.76" width="143.195" height="33.4894" rx="7.2" fill="#D9D9D9"/>
<rect id="PasarOwi_L009" x="337.658" y="128.76" width="143.195" height="33.4894" rx="7.2" fill="#D9D9D9"/>
<rect id="PasarOwi_L002" x="153.378" y="0.406189" width="128.876" height="60.281" rx="7.2" fill="#D9D9D9"/>
<rect id="PasarOwi_L003" x="296.756" y="0.406189" width="128.876" height="60.281" rx="7.2" fill="#D9D9D9"/>
<rect id="PasarOwi_L011" x="10" y="300.719" width="198.883" height="60.281" rx="7.2" fill="#D9D9D9"/>
<rect id="PasarOwi_L012" x="234.153" y="267.475" width="63.6424" height="60.281" rx="7.2" fill="#D9D9D9"/>
<rect id="PasarOwi_L013" x="312.842" y="240.438" width="103.13" height="60.281" rx="7.2" fill="#D9D9D9"/>
<rect id="PasarOwi_L010" x="708.723" y="85.2581" width="63.6424" height="150.702" rx="7.2" fill="#D9D9D9"/>
<rect id="PasarOwi_L015" x="563.496" y="310.766" width="95.4636" height="50.2341" rx="7.2" fill="#D9D9D9"/>
<g id="PasarOwi_L014">
<rect id="[NAMA PASAR]_[ID]_3" x="434.148" y="238.199" width="111.172" height="121" rx="8" fill="#B5FF9F"/>
<path id="ID_3" d="M468.609 304.199V294.017H470.145V302.877H474.759V304.199H468.609ZM479.592 294.017V304.199H478.051V295.559H477.992L475.555 297.15V295.678L478.096 294.017H479.592ZM487.82 304.199V305.462H481.352V304.199H487.82ZM491.688 304.368C490.903 304.365 490.232 304.158 489.675 303.747C489.118 303.336 488.692 302.738 488.397 301.952C488.102 301.167 487.955 300.22 487.955 299.113C487.955 298.01 488.102 297.067 488.397 296.285C488.695 295.502 489.123 294.906 489.68 294.495C490.24 294.084 490.909 293.878 491.688 293.878C492.467 293.878 493.135 294.085 493.692 294.5C494.249 294.911 494.675 295.507 494.97 296.29C495.268 297.068 495.417 298.01 495.417 299.113C495.417 300.224 495.269 301.172 494.974 301.957C494.68 302.739 494.254 303.338 493.697 303.752C493.14 304.163 492.47 304.368 491.688 304.368ZM491.688 303.041C492.378 303.041 492.916 302.705 493.304 302.032C493.695 301.359 493.891 300.386 493.891 299.113C493.891 298.268 493.801 297.554 493.622 296.971C493.447 296.384 493.193 295.94 492.862 295.638C492.533 295.333 492.142 295.181 491.688 295.181C491.002 295.181 490.464 295.519 490.073 296.195C489.681 296.871 489.484 297.844 489.481 299.113C489.481 299.962 489.569 300.679 489.744 301.266C489.923 301.849 490.177 302.292 490.505 302.593C490.833 302.892 491.228 303.041 491.688 303.041ZM501.044 294.017V304.199H499.502V295.559H499.443L497.007 297.15V295.678L499.547 294.017H501.044ZM503.584 302.211V300.968L507.984 294.017H508.963V295.847H508.342L505.195 300.829V300.908H511.225V302.211H503.584ZM508.411 304.199V301.833L508.421 301.266V294.017H509.878V304.199H508.411Z" fill="black" fill-opacity="0.8"/>
</g>
<g id="PasarOwi_L005">
<rect id="[NAMA PASAR]_[ID]_4" x="649.476" y="1" width="123.524" height="60" rx="8" fill="#B5FF9F"/>
<path id="ID_4" d="M659.774 36.5V26.3182H663.404C664.196 26.3182 664.852 26.4624 665.372 26.7507C665.893 27.0391 666.282 27.4335 666.541 27.9339C666.799 28.4311 666.929 28.9912 666.929 29.6143C666.929 30.2408 666.798 30.8042 666.536 31.3047C666.277 31.8018 665.886 32.1963 665.362 32.4879C664.842 32.7763 664.188 32.9205 663.399 32.9205H660.903V31.6179H663.26C663.76 31.6179 664.166 31.5317 664.478 31.3594C664.789 31.1837 665.018 30.9451 665.164 30.6435C665.309 30.3419 665.382 29.9988 665.382 29.6143C665.382 29.2299 665.309 28.8885 665.164 28.5902C665.018 28.2919 664.787 28.0582 664.473 27.8892C664.161 27.7202 663.75 27.6357 663.24 27.6357H661.311V36.5H659.774ZM670.764 36.669C670.28 36.669 669.843 36.5795 669.452 36.4006C669.061 36.2183 668.751 35.9548 668.522 35.6101C668.297 35.2654 668.184 34.8428 668.184 34.3423C668.184 33.9115 668.267 33.5568 668.432 33.2784C668.598 33 668.822 32.7796 669.104 32.6172C669.385 32.4548 669.7 32.3321 670.048 32.2493C670.396 32.1664 670.751 32.1035 671.112 32.0604C671.57 32.0073 671.941 31.9643 672.226 31.9311C672.511 31.8946 672.718 31.8366 672.847 31.7571C672.976 31.6776 673.041 31.5483 673.041 31.3693V31.3345C673.041 30.9003 672.918 30.5639 672.673 30.3253C672.431 30.0866 672.07 29.9673 671.589 29.9673C671.089 29.9673 670.695 30.0784 670.406 30.3004C670.121 30.5192 669.924 30.7628 669.815 31.0312L668.418 30.7131C668.583 30.2491 668.825 29.8745 669.143 29.5895C669.465 29.3011 669.834 29.0923 670.252 28.9631C670.67 28.8305 671.109 28.7642 671.57 28.7642C671.874 28.7642 672.198 28.8007 672.539 28.8736C672.884 28.9432 673.205 29.0724 673.503 29.2614C673.805 29.4503 674.052 29.7204 674.244 30.0717C674.436 30.4197 674.533 30.8722 674.533 31.429V36.5H673.081V35.456H673.021C672.925 35.6482 672.781 35.8371 672.589 36.0227C672.396 36.2083 672.15 36.3625 671.848 36.4851C671.546 36.6077 671.185 36.669 670.764 36.669ZM671.087 35.4759C671.498 35.4759 671.85 35.3946 672.141 35.2322C672.436 35.0698 672.66 34.8577 672.812 34.5959C672.968 34.3307 673.046 34.0473 673.046 33.7457V32.7614C672.993 32.8144 672.89 32.8641 672.738 32.9105C672.589 32.9536 672.418 32.9917 672.226 33.0249C672.034 33.0547 671.846 33.0829 671.664 33.1094C671.482 33.1326 671.329 33.1525 671.207 33.169C670.918 33.2055 670.655 33.2668 670.416 33.353C670.181 33.4392 669.992 33.5634 669.849 33.7259C669.71 33.8849 669.641 34.0971 669.641 34.3622C669.641 34.7301 669.776 35.0085 670.048 35.1974C670.32 35.383 670.666 35.4759 671.087 35.4759ZM682.235 30.728L680.888 30.9666C680.831 30.7943 680.742 30.6302 680.619 30.4744C680.5 30.3187 680.337 30.1911 680.132 30.0916C679.926 29.9922 679.669 29.9425 679.361 29.9425C678.94 29.9425 678.589 30.0369 678.307 30.2259C678.026 30.4115 677.885 30.6518 677.885 30.9467C677.885 31.2019 677.979 31.4074 678.168 31.5632C678.357 31.719 678.662 31.8466 679.083 31.946L680.296 32.2244C680.999 32.3868 681.522 32.6371 681.867 32.9751C682.212 33.3132 682.384 33.7524 682.384 34.2926C682.384 34.75 682.251 35.1577 681.986 35.5156C681.724 35.8703 681.358 36.1487 680.888 36.3509C680.42 36.553 679.878 36.6541 679.262 36.6541C678.407 36.6541 677.709 36.4718 677.169 36.1072C676.629 35.7393 676.297 35.2173 676.174 34.5412L677.611 34.3224C677.701 34.697 677.885 34.9804 678.163 35.1726C678.442 35.3615 678.804 35.456 679.252 35.456C679.739 35.456 680.129 35.3549 680.42 35.1527C680.712 34.9472 680.858 34.697 680.858 34.402C680.858 34.1634 680.768 33.9628 680.589 33.8004C680.414 33.638 680.143 33.5154 679.779 33.4325L678.486 33.1491C677.774 32.9867 677.247 32.7282 676.905 32.3736C676.567 32.0189 676.398 31.5698 676.398 31.0263C676.398 30.5755 676.524 30.1811 676.776 29.843C677.028 29.505 677.376 29.2415 677.82 29.0526C678.264 28.8603 678.773 28.7642 679.346 28.7642C680.172 28.7642 680.821 28.9432 681.295 29.3011C681.769 29.6558 682.082 30.1314 682.235 30.728ZM686.241 36.669C685.757 36.669 685.319 36.5795 684.928 36.4006C684.537 36.2183 684.227 35.9548 683.999 35.6101C683.773 35.2654 683.66 34.8428 683.66 34.3423C683.66 33.9115 683.743 33.5568 683.909 33.2784C684.075 33 684.298 32.7796 684.58 32.6172C684.862 32.4548 685.177 32.3321 685.525 32.2493C685.873 32.1664 686.227 32.1035 686.589 32.0604C687.046 32.0073 687.417 31.9643 687.702 31.9311C687.987 31.8946 688.195 31.8366 688.324 31.7571C688.453 31.6776 688.518 31.5483 688.518 31.3693V31.3345C688.518 30.9003 688.395 30.5639 688.15 30.3253C687.908 30.0866 687.547 29.9673 687.066 29.9673C686.566 29.9673 686.171 30.0784 685.883 30.3004C685.598 30.5192 685.4 30.7628 685.291 31.0312L683.894 30.7131C684.06 30.2491 684.302 29.8745 684.62 29.5895C684.941 29.3011 685.311 29.0923 685.729 28.9631C686.146 28.8305 686.585 28.7642 687.046 28.7642C687.351 28.7642 687.674 28.8007 688.016 28.8736C688.36 28.9432 688.682 29.0724 688.98 29.2614C689.282 29.4503 689.529 29.7204 689.721 30.0717C689.913 30.4197 690.009 30.8722 690.009 31.429V36.5H688.557V35.456H688.498C688.402 35.6482 688.258 35.8371 688.065 36.0227C687.873 36.2083 687.626 36.3625 687.325 36.4851C687.023 36.6077 686.662 36.669 686.241 36.669ZM686.564 35.4759C686.975 35.4759 687.326 35.3946 687.618 35.2322C687.913 35.0698 688.137 34.8577 688.289 34.5959C688.445 34.3307 688.523 34.0473 688.523 33.7457V32.7614C688.47 32.8144 688.367 32.8641 688.214 32.9105C688.065 32.9536 687.895 32.9917 687.702 33.0249C687.51 33.0547 687.323 33.0829 687.141 33.1094C686.958 33.1326 686.806 33.1525 686.683 33.169C686.395 33.2055 686.131 33.2668 685.893 33.353C685.657 33.4392 685.468 33.5634 685.326 33.7259C685.187 33.8849 685.117 34.0971 685.117 34.3622C685.117 34.7301 685.253 35.0085 685.525 35.1974C685.797 35.383 686.143 35.4759 686.564 35.4759ZM691.989 36.5V28.8636H693.426V30.0767H693.505C693.645 29.6657 693.89 29.3426 694.241 29.1072C694.596 28.8686 694.997 28.7493 695.444 28.7493C695.537 28.7493 695.647 28.7526 695.772 28.7592C695.902 28.7659 696.003 28.7741 696.076 28.7841V30.206C696.016 30.1894 695.91 30.1712 695.758 30.1513C695.605 30.1281 695.453 30.1165 695.3 30.1165C694.949 30.1165 694.636 30.1911 694.361 30.3402C694.089 30.486 693.873 30.6899 693.714 30.9517C693.555 31.2102 693.476 31.5052 693.476 31.8366V36.5H691.989ZM706.326 31.4091C706.326 32.4962 706.127 33.4309 705.729 34.2131C705.332 34.992 704.786 35.5919 704.094 36.0128C703.404 36.4304 702.62 36.6392 701.742 36.6392C700.86 36.6392 700.073 36.4304 699.381 36.0128C698.691 35.5919 698.148 34.9903 697.75 34.2081C697.352 33.4259 697.153 32.4929 697.153 31.4091C697.153 30.322 697.352 29.389 697.75 28.6101C698.148 27.8279 698.691 27.228 699.381 26.8104C700.073 26.3894 700.86 26.179 701.742 26.179C702.62 26.179 703.404 26.3894 704.094 26.8104C704.786 27.228 705.332 27.8279 705.729 28.6101C706.127 29.389 706.326 30.322 706.326 31.4091ZM704.805 31.4091C704.805 30.5805 704.67 29.8828 704.402 29.3161C704.137 28.746 703.772 28.3151 703.308 28.0234C702.847 27.7285 702.325 27.581 701.742 27.581C701.155 27.581 700.632 27.7285 700.171 28.0234C699.71 28.3151 699.346 28.746 699.077 29.3161C698.812 29.8828 698.68 30.5805 698.68 31.4091C698.68 32.2377 698.812 32.937 699.077 33.5071C699.346 34.0739 699.71 34.5047 700.171 34.7997C700.632 35.0914 701.155 35.2372 701.742 35.2372C702.325 35.2372 702.847 35.0914 703.308 34.7997C703.772 34.5047 704.137 34.0739 704.402 33.5071C704.67 32.937 704.805 32.2377 704.805 31.4091ZM709.777 36.5L707.53 28.8636H709.067L710.563 34.4716H710.638L712.139 28.8636H713.675L715.167 34.4467H715.241L716.728 28.8636H718.264L716.022 36.5H714.505L712.954 30.9865H712.84L711.289 36.5H709.777ZM719.675 36.5V28.8636H721.161V36.5H719.675ZM720.425 27.6854C720.167 27.6854 719.945 27.5992 719.759 27.4268C719.577 27.2512 719.486 27.0424 719.486 26.8004C719.486 26.5552 719.577 26.3464 719.759 26.174C719.945 25.9983 720.167 25.9105 720.425 25.9105C720.684 25.9105 720.904 25.9983 721.087 26.174C721.272 26.3464 721.365 26.5552 721.365 26.8004C721.365 27.0424 721.272 27.2512 721.087 27.4268C720.904 27.5992 720.684 27.6854 720.425 27.6854ZM729.175 36.5V37.7628H722.707V36.5H729.175ZM730.28 36.5V26.3182H731.817V35.1776H736.43V36.5H730.28ZM741.588 36.669C740.803 36.6657 740.131 36.4586 739.575 36.0476C739.018 35.6366 738.592 35.0384 738.297 34.2528C738.002 33.4673 737.855 32.5211 737.855 31.4141C737.855 30.3104 738.002 29.3674 738.297 28.5852C738.595 27.803 739.023 27.2064 739.58 26.7955C740.14 26.3845 740.809 26.179 741.588 26.179C742.367 26.179 743.035 26.3861 743.592 26.8004C744.149 27.2114 744.574 27.808 744.869 28.5902C745.168 29.3691 745.317 30.3104 745.317 31.4141C745.317 32.5244 745.169 33.4723 744.874 34.2578C744.579 35.04 744.154 35.6383 743.597 36.0526C743.04 36.4635 742.37 36.669 741.588 36.669ZM741.588 35.3416C742.278 35.3416 742.816 35.0052 743.204 34.3324C743.595 33.6596 743.791 32.6868 743.791 31.4141C743.791 30.5689 743.701 29.8546 743.522 29.2713C743.346 28.6847 743.093 28.2405 742.761 27.9389C742.433 27.634 742.042 27.4815 741.588 27.4815C740.902 27.4815 740.364 27.8196 739.972 28.4957C739.581 29.1719 739.384 30.1446 739.381 31.4141C739.381 32.2625 739.469 32.9801 739.644 33.5668C739.823 34.1501 740.077 34.5926 740.405 34.8942C740.733 35.1925 741.127 35.3416 741.588 35.3416ZM750.625 36.669C749.84 36.6657 749.169 36.4586 748.612 36.0476C748.055 35.6366 747.629 35.0384 747.334 34.2528C747.039 33.4673 746.892 32.5211 746.892 31.4141C746.892 30.3104 747.039 29.3674 747.334 28.5852C747.632 27.803 748.06 27.2064 748.617 26.7955C749.177 26.3845 749.846 26.179 750.625 26.179C751.404 26.179 752.072 26.3861 752.629 26.8004C753.186 27.2114 753.612 27.808 753.907 28.5902C754.205 29.3691 754.354 30.3104 754.354 31.4141C754.354 32.5244 754.206 33.4723 753.912 34.2578C753.617 35.04 753.191 35.6383 752.634 36.0526C752.077 36.4635 751.407 36.669 750.625 36.669ZM750.625 35.3416C751.315 35.3416 751.853 35.0052 752.241 34.3324C752.632 33.6596 752.828 32.6868 752.828 31.4141C752.828 30.5689 752.738 29.8546 752.559 29.2713C752.384 28.6847 752.13 28.2405 751.799 27.9389C751.47 27.634 751.079 27.4815 750.625 27.4815C749.939 27.4815 749.401 27.8196 749.01 28.4957C748.618 29.1719 748.421 30.1446 748.418 31.4141C748.418 32.2625 748.506 32.9801 748.681 33.5668C748.86 34.1501 749.114 34.5926 749.442 34.8942C749.77 35.1925 750.165 35.3416 750.625 35.3416ZM759.478 36.6392C758.855 36.6392 758.295 36.5199 757.798 36.2812C757.304 36.0393 756.91 35.7079 756.615 35.2869C756.32 34.866 756.162 34.3854 756.143 33.8452H757.634C757.67 34.2827 757.864 34.6423 758.216 34.924C758.567 35.2057 758.988 35.3466 759.478 35.3466C759.87 35.3466 760.216 35.2571 760.518 35.0781C760.822 34.8958 761.061 34.6456 761.233 34.3274C761.409 34.0092 761.497 33.6463 761.497 33.2386C761.497 32.8243 761.407 32.4548 761.228 32.13C761.049 31.8052 760.803 31.55 760.488 31.3643C760.176 31.1787 759.818 31.0843 759.414 31.081C759.106 31.081 758.796 31.134 758.484 31.2401C758.173 31.3461 757.921 31.4853 757.728 31.6577L756.321 31.4489L756.893 26.3182H762.491V27.6357H758.171L757.848 30.4844H757.907C758.106 30.2921 758.37 30.1314 758.698 30.0021C759.029 29.8729 759.384 29.8082 759.762 29.8082C760.382 29.8082 760.933 29.9557 761.417 30.2507C761.905 30.5457 762.287 30.9484 762.566 31.4588C762.848 31.9659 762.987 32.5492 762.983 33.2088C762.987 33.8684 762.838 34.4567 762.536 34.9737C762.238 35.4908 761.823 35.8984 761.293 36.1967C760.766 36.4917 760.161 36.6392 759.478 36.6392Z" fill="black" fill-opacity="0.8"/>
</g>
<rect id="PasarOwi_L016" x="708.592" y="260.532" width="63.6424" height="100.468" rx="7.2" fill="#D9D9D9"/>
<rect id="PasarOwi_L004" x="440.134" y="0.406189" width="63.6424" height="60.281" rx="7.2" fill="#D9D9D9"/>
</g>
</g>
<defs>
<clipPath id="clip0_315_66">
<rect width="783" height="361" fill="white"/>
</clipPath>
</defs>
</svg>
