<svg width="682" height="329" viewBox="0 0 682 329" fill="none" xmlns="http://www.w3.org/2000/svg">
<g id="BordeMargin">
<g id="PasarOWI">
<g id="In/Out">
<rect x="448.5" y="20.5" width="147" height="47" fill="white"/>
<rect x="448.5" y="20.5" width="147" height="47" stroke="#878787" stroke-linecap="round"/>
<path id="ID" d="M477.91 46.5V38.1H477.922L482.245 44.2264L481.73 44.1144L486.03 38.1H486.053V46.5H484.866V40.7992L484.944 41.4152L481.942 45.66H481.92L478.862 41.4152L479.064 40.8552V46.5H477.91ZM487.505 46.5L491.078 38.044H491.145L494.718 46.5H493.351L490.753 39.9144L491.615 39.3432L488.681 46.5H487.505ZM489.678 43.4536H492.567L492.982 44.484H489.319L489.678 43.4536ZM500.41 39.9256C500.126 39.7763 499.82 39.6493 499.491 39.5448C499.163 39.4403 498.845 39.388 498.539 39.388C498.121 39.388 497.789 39.4851 497.542 39.6792C497.296 39.8659 497.173 40.1235 497.173 40.452C497.173 40.6835 497.255 40.8851 497.419 41.0568C497.583 41.2285 497.796 41.3779 498.058 41.5048C498.319 41.6317 498.595 41.7512 498.886 41.8632C499.133 41.9528 499.375 42.0611 499.614 42.188C499.861 42.3075 500.081 42.4568 500.275 42.636C500.477 42.8152 500.634 43.0392 500.746 43.308C500.865 43.5693 500.925 43.8904 500.925 44.2712C500.925 44.7043 500.817 45.0963 500.6 45.4472C500.391 45.7981 500.085 46.0781 499.682 46.2872C499.286 46.4888 498.804 46.5896 498.237 46.5896C497.893 46.5896 497.557 46.5523 497.229 46.4776C496.908 46.3955 496.602 46.2909 496.31 46.164C496.027 46.0296 495.769 45.884 495.538 45.7272L496.075 44.7976C496.254 44.9245 496.46 45.0477 496.691 45.1672C496.923 45.2792 497.162 45.3688 497.408 45.436C497.662 45.5032 497.901 45.5368 498.125 45.5368C498.371 45.5368 498.614 45.4957 498.853 45.4136C499.092 45.324 499.29 45.1896 499.446 45.0104C499.603 44.8237 499.682 44.5811 499.682 44.2824C499.682 44.0285 499.611 43.8157 499.469 43.644C499.334 43.4648 499.151 43.3117 498.92 43.1848C498.696 43.0579 498.453 42.9459 498.192 42.8488C497.938 42.7517 497.681 42.6435 497.419 42.524C497.158 42.4045 496.915 42.2627 496.691 42.0984C496.467 41.9267 496.284 41.7176 496.142 41.4712C496.008 41.2173 495.941 40.9075 495.941 40.5416C495.941 40.1085 496.042 39.7315 496.243 39.4104C496.452 39.0819 496.74 38.8243 497.106 38.6376C497.471 38.4509 497.893 38.3464 498.371 38.324C498.916 38.324 499.39 38.3912 499.794 38.5256C500.197 38.66 500.555 38.8205 500.869 39.0072L500.41 39.9256ZM503.77 43.5992C503.77 43.9427 503.856 44.2525 504.028 44.5288C504.199 44.8051 504.427 45.0253 504.711 45.1896C504.994 45.3539 505.312 45.436 505.663 45.436C506.036 45.436 506.368 45.3539 506.66 45.1896C506.951 45.0253 507.178 44.8051 507.343 44.5288C507.514 44.2525 507.6 43.9427 507.6 43.5992V38.3688H508.776V43.6328C508.776 44.2227 508.638 44.7416 508.362 45.1896C508.086 45.6301 507.712 45.9736 507.242 46.22C506.772 46.4664 506.245 46.5896 505.663 46.5896C505.095 46.5896 504.576 46.4664 504.106 46.22C503.636 45.9736 503.262 45.6301 502.986 45.1896C502.717 44.7416 502.583 44.2227 502.583 43.6328V38.3688H503.77V43.5992ZM512.151 41.572L512.118 41.9752L512.286 41.74L515.466 38.3688H517.012L513.652 41.8968L517.169 46.5H515.657L512.778 42.6472L512.151 43.2632V46.5H510.942V38.3688H512.151V41.572ZM521.846 38.1336C521.323 39.5672 520.797 40.9971 520.267 42.4232C519.744 43.8493 519.218 45.2792 518.687 46.7128H517.646C518.176 45.2792 518.702 43.8493 519.225 42.4232C519.755 40.9971 520.282 39.5672 520.804 38.1336H521.846ZM524.193 41.572L524.16 41.9752L524.328 41.74L527.509 38.3688H529.054L525.694 41.8968L529.211 46.5H527.699L524.821 42.6472L524.193 43.2632V46.5H522.984V38.3688H524.193V41.572ZM530.64 38.3688H535.982V39.5224H531.838V41.8408H535.523V42.9944H531.838V45.3464H536.139V46.5H530.64V38.3688ZM537.979 38.3688H539.178V45.3464H543.243V46.5H537.979V38.3688ZM546.065 43.5992C546.065 43.9427 546.151 44.2525 546.323 44.5288C546.495 44.8051 546.722 45.0253 547.006 45.1896C547.29 45.3539 547.607 45.436 547.958 45.436C548.331 45.436 548.664 45.3539 548.955 45.1896C549.246 45.0253 549.474 44.8051 549.638 44.5288C549.81 44.2525 549.896 43.9427 549.896 43.5992V38.3688H551.072V43.6328C551.072 44.2227 550.934 44.7416 550.657 45.1896C550.381 45.6301 550.008 45.9736 549.537 46.22C549.067 46.4664 548.54 46.5896 547.958 46.5896C547.391 46.5896 546.872 46.4664 546.401 46.22C545.931 45.9736 545.558 45.6301 545.281 45.1896C545.012 44.7416 544.878 44.2227 544.878 43.6328V38.3688H546.065V43.5992ZM552.255 46.5L555.828 38.044H555.895L559.468 46.5H558.101L555.503 39.9144L556.365 39.3432L553.431 46.5H552.255ZM554.428 43.4536H557.317L557.732 44.484H554.069L554.428 43.4536ZM563.155 38.3688C563.58 38.3688 563.972 38.4285 564.331 38.548C564.697 38.66 565.007 38.8243 565.26 39.0408C565.522 39.2573 565.723 39.5261 565.865 39.8472C566.015 40.1608 566.089 40.5267 566.089 40.9448C566.089 41.2659 566.041 41.5832 565.944 41.8968C565.847 42.2104 565.69 42.4941 565.473 42.748C565.257 43.0019 564.973 43.2072 564.622 43.364C564.271 43.5133 563.834 43.588 563.312 43.588H562.124V46.5H560.926V38.3688H563.155ZM563.289 42.4456C563.595 42.4456 563.849 42.3971 564.051 42.3C564.26 42.2029 564.42 42.0835 564.532 41.9416C564.652 41.7923 564.734 41.6355 564.779 41.4712C564.831 41.2995 564.857 41.1352 564.857 40.9784C564.857 40.8291 564.831 40.6723 564.779 40.508C564.734 40.3437 564.652 40.1869 564.532 40.0376C564.42 39.8883 564.267 39.7651 564.073 39.668C563.879 39.5709 563.64 39.5224 563.356 39.5224H562.124V42.4456H563.289ZM564.667 43.14L566.772 46.5H565.384L563.244 43.1736L564.667 43.14Z" fill="#878787"/>
</g>
<rect id="L006" x="22.0389" y="123.008" width="108.506" height="85.7608" rx="5.76" fill="#D9D9D9"/>
<rect id="L008" x="152.926" y="159.204" width="120.562" height="26.7915" rx="5.76" fill="#D9D9D9"/>
<rect id="L007" x="152.926" y="123.008" width="120.562" height="26.7915" rx="5.76" fill="#D9D9D9"/>
<rect id="L009" x="295.869" y="123.008" width="120.562" height="26.7915" rx="5.76" fill="#D9D9D9"/>
<rect id="L002" x="140.716" y="20.325" width="108.506" height="48.2248" rx="5.76" fill="#D9D9D9"/>
<rect id="L001" x="20" y="20" width="100" height="57" rx="5.76" fill="#D9D9D9"/>
<rect id="L003" x="261.431" y="20.325" width="108.506" height="48.2248" rx="5.76" fill="#D9D9D9"/>
<rect id="L011" x="20" y="260.575" width="167.447" height="48.2248" rx="5.76" fill="#D9D9D9"/>
<rect id="L012" x="204" y="245" width="53.5831" height="48.2248" rx="5.76" fill="#D9D9D9"/>
<rect id="L013" x="274.975" y="258" width="86.8296" height="48.2248" rx="5.76" fill="#D9D9D9"/>
<rect id="L010" x="608.283" y="88.2065" width="53.5831" height="120.562" rx="5.76" fill="#D9D9D9"/>
<rect id="L015" x="486.01" y="268.613" width="80.3746" height="40.1873" rx="5.76" fill="#D9D9D9"/>
<rect id="L014" x="377.107" y="210.559" width="93.6" height="96.8" rx="5.76" fill="#D9D9D9"/>
<rect id="L005" x="608" y="21" width="54" height="48" rx="5.76" fill="#D9D9D9"/>
<rect id="L016" x="608.172" y="228.425" width="53.5831" height="80.3746" rx="5.76" fill="#D9D9D9"/>
<rect id="L004" x="382.147" y="20.325" width="53.5831" height="48.2248" rx="5.76" fill="#D9D9D9"/>
</g>
</g>
</svg>
