<svg width="803" height="361" viewBox="0 0 803 361" fill="none" xmlns="http://www.w3.org/2000/svg">
<g id="PASAR_OWI Contoh">
<g id="PasarOwi_L001">
<rect id="[NAMA PASAR]_[ID]" y="0.445862" width="125.585" height="71.165" rx="8" fill="#9FFDFF"/>
<path id="ID" d="M41.7287 41.5284V31.3466H43.2649V40.2059H47.8785V41.5284H41.7287ZM52.7121 31.3466V41.5284H51.171V32.8878H51.1113L48.6752 34.4787V33.0071L51.2157 31.3466H52.7121ZM60.9401 41.5284V42.7912H54.4721V41.5284H60.9401ZM64.808 41.6974C64.0225 41.6941 63.3514 41.487 62.7945 41.076C62.2377 40.665 61.8118 40.0667 61.5168 39.2812C61.2219 38.4957 61.0744 37.5495 61.0744 36.4424C61.0744 35.3388 61.2219 34.3958 61.5168 33.6136C61.8151 32.8314 62.2427 32.2348 62.7995 31.8238C63.3596 31.4129 64.0291 31.2074 64.808 31.2074C65.5869 31.2074 66.2548 31.4145 66.8116 31.8288C67.3684 32.2398 67.7943 32.8364 68.0893 33.6186C68.3876 34.3975 68.5367 35.3388 68.5367 36.4424C68.5367 37.5528 68.3892 38.5007 68.0943 39.2862C67.7993 40.0684 67.3734 40.6666 66.8166 41.0809C66.2597 41.4919 65.5902 41.6974 64.808 41.6974ZM64.808 40.37C65.4974 40.37 66.036 40.0336 66.4238 39.3608C66.8149 38.6879 67.0104 37.7152 67.0104 36.4424C67.0104 35.5973 66.921 34.883 66.742 34.2997C66.5663 33.713 66.3128 33.2689 65.9813 32.9673C65.6532 32.6624 65.2621 32.5099 64.808 32.5099C64.122 32.5099 63.5834 32.848 63.1923 33.5241C62.8012 34.2003 62.604 35.173 62.6006 36.4424C62.6006 37.2909 62.6885 38.0085 62.8641 38.5951C63.0431 39.1785 63.2967 39.6209 63.6248 39.9226C63.9529 40.2209 64.3473 40.37 64.808 40.37ZM73.8451 41.6974C73.0596 41.6941 72.3885 41.487 71.8316 41.076C71.2748 40.665 70.8489 40.0667 70.5539 39.2812C70.259 38.4957 70.1115 37.5495 70.1115 36.4424C70.1115 35.3388 70.259 34.3958 70.5539 33.6136C70.8522 32.8314 71.2798 32.2348 71.8366 31.8238C72.3967 31.4129 73.0663 31.2074 73.8451 31.2074C74.624 31.2074 75.2919 31.4145 75.8487 31.8288C76.4055 32.2398 76.8314 32.8364 77.1264 33.6186C77.4247 34.3975 77.5738 35.3388 77.5738 36.4424C77.5738 37.5528 77.4263 38.5007 77.1314 39.2862C76.8364 40.0684 76.4105 40.6666 75.8537 41.0809C75.2968 41.4919 74.6273 41.6974 73.8451 41.6974ZM73.8451 40.37C74.5345 40.37 75.0731 40.0336 75.4609 39.3608C75.852 38.6879 76.0476 37.7152 76.0476 36.4424C76.0476 35.5973 75.9581 34.883 75.7791 34.2997C75.6034 33.713 75.3499 33.2689 75.0184 32.9673C74.6903 32.6624 74.2992 32.5099 73.8451 32.5099C73.1591 32.5099 72.6205 32.848 72.2294 33.5241C71.8383 34.2003 71.6411 35.173 71.6378 36.4424C71.6378 37.2909 71.7256 38.0085 71.9012 38.5951C72.0802 39.1785 72.3338 39.6209 72.6619 39.9226C72.99 40.2209 73.3844 40.37 73.8451 40.37ZM83.2004 31.3466V41.5284H81.6592V32.8878H81.5996L79.1635 34.4787V33.0071L81.704 31.3466H83.2004Z" fill="black" fill-opacity="0.8"/>
</g>
<g id="PasarOwi_L001_2">
<rect id="[NAMA PASAR]_[ID]_2" x="535" width="126" height="60" rx="8" stroke="black" stroke-width="3" stroke-dasharray="8 8"/>
<path id="ID_2" d="M542.888 34V23.5H542.902L548.306 31.158L547.662 31.018L553.038 23.5H553.066V34H551.582V26.874L551.68 27.644L547.928 32.95H547.9L544.078 27.644L544.33 26.944V34H542.888ZM554.881 34L559.347 23.43H559.431L563.897 34H562.189L558.941 25.768L560.019 25.054L556.351 34H554.881ZM557.597 30.192H561.209L561.727 31.48H557.149L557.597 30.192ZM571.012 25.782C570.657 25.5953 570.275 25.4367 569.864 25.306C569.453 25.1753 569.057 25.11 568.674 25.11C568.151 25.11 567.736 25.2313 567.428 25.474C567.12 25.7073 566.966 26.0293 566.966 26.44C566.966 26.7293 567.069 26.9813 567.274 27.196C567.479 27.4107 567.745 27.5973 568.072 27.756C568.399 27.9147 568.744 28.064 569.108 28.204C569.416 28.316 569.719 28.4513 570.018 28.61C570.326 28.7593 570.601 28.946 570.844 29.17C571.096 29.394 571.292 29.674 571.432 30.01C571.581 30.3367 571.656 30.738 571.656 31.214C571.656 31.7553 571.521 32.2453 571.25 32.684C570.989 33.1227 570.606 33.4727 570.102 33.734C569.607 33.986 569.005 34.112 568.296 34.112C567.867 34.112 567.447 34.0653 567.036 33.972C566.635 33.8693 566.252 33.7387 565.888 33.58C565.533 33.412 565.211 33.23 564.922 33.034L565.594 31.872C565.818 32.0307 566.075 32.1847 566.364 32.334C566.653 32.474 566.952 32.586 567.26 32.67C567.577 32.754 567.876 32.796 568.156 32.796C568.464 32.796 568.767 32.7447 569.066 32.642C569.365 32.53 569.612 32.362 569.808 32.138C570.004 31.9047 570.102 31.6013 570.102 31.228C570.102 30.9107 570.013 30.6447 569.836 30.43C569.668 30.206 569.439 30.0147 569.15 29.856C568.87 29.6973 568.567 29.5573 568.24 29.436C567.923 29.3147 567.601 29.1793 567.274 29.03C566.947 28.8807 566.644 28.7033 566.364 28.498C566.084 28.2833 565.855 28.022 565.678 27.714C565.51 27.3967 565.426 27.0093 565.426 26.552C565.426 26.0107 565.552 25.5393 565.804 25.138C566.065 24.7273 566.425 24.4053 566.882 24.172C567.339 23.9387 567.867 23.808 568.464 23.78C569.145 23.78 569.738 23.864 570.242 24.032C570.746 24.2 571.194 24.4007 571.586 24.634L571.012 25.782ZM575.212 30.374C575.212 30.8033 575.32 31.1907 575.534 31.536C575.749 31.8813 576.034 32.1567 576.388 32.362C576.743 32.5673 577.14 32.67 577.578 32.67C578.045 32.67 578.46 32.5673 578.824 32.362C579.188 32.1567 579.473 31.8813 579.678 31.536C579.893 31.1907 580 30.8033 580 30.374V23.836H581.47V30.416C581.47 31.1533 581.298 31.802 580.952 32.362C580.607 32.9127 580.14 33.342 579.552 33.65C578.964 33.958 578.306 34.112 577.578 34.112C576.869 34.112 576.22 33.958 575.632 33.65C575.044 33.342 574.578 32.9127 574.232 32.362C573.896 31.802 573.728 31.1533 573.728 30.416V23.836H575.212V30.374ZM585.689 27.84L585.647 28.344L585.857 28.05L589.833 23.836H591.765L587.565 28.246L591.961 34H590.071L586.473 29.184L585.689 29.954V34H584.177V23.836H585.689V27.84ZM597.807 23.542C597.154 25.334 596.496 27.1213 595.833 28.904C595.18 30.6867 594.522 32.474 593.859 34.266H592.557C593.22 32.474 593.878 30.6867 594.531 28.904C595.194 27.1213 595.852 25.334 596.505 23.542H597.807ZM600.742 27.84L600.7 28.344L600.91 28.05L604.886 23.836H606.818L602.618 28.246L607.014 34H605.124L601.526 29.184L600.742 29.954V34H599.23V23.836H600.742V27.84ZM608.8 23.836H615.478V25.278H610.298V28.176H614.904V29.618H610.298V32.558H615.674V34H608.8V23.836ZM617.974 23.836H619.472V32.558H624.554V34H617.974V23.836ZM628.082 30.374C628.082 30.8033 628.189 31.1907 628.404 31.536C628.618 31.8813 628.903 32.1567 629.258 32.362C629.612 32.5673 630.009 32.67 630.448 32.67C630.914 32.67 631.33 32.5673 631.694 32.362C632.058 32.1567 632.342 31.8813 632.548 31.536C632.762 31.1907 632.87 30.8033 632.87 30.374V23.836H634.34V30.416C634.34 31.1533 634.167 31.802 633.822 32.362C633.476 32.9127 633.01 33.342 632.422 33.65C631.834 33.958 631.176 34.112 630.448 34.112C629.738 34.112 629.09 33.958 628.502 33.65C627.914 33.342 627.447 32.9127 627.102 32.362C626.766 31.802 626.598 31.1533 626.598 30.416V23.836H628.082V30.374ZM635.819 34L640.285 23.43H640.369L644.835 34H643.127L639.879 25.768L640.957 25.054L637.289 34H635.819ZM638.535 30.192H642.147L642.665 31.48H638.087L638.535 30.192ZM649.443 23.836C649.975 23.836 650.465 23.9107 650.913 24.06C651.371 24.2 651.758 24.4053 652.075 24.676C652.402 24.9467 652.654 25.2827 652.831 25.684C653.018 26.076 653.111 26.5333 653.111 27.056C653.111 27.4573 653.051 27.854 652.929 28.246C652.808 28.638 652.612 28.9927 652.341 29.31C652.071 29.6273 651.716 29.884 651.277 30.08C650.839 30.2667 650.293 30.36 649.639 30.36H648.155V34H646.657V23.836H649.443ZM649.611 28.932C649.994 28.932 650.311 28.8713 650.563 28.75C650.825 28.6287 651.025 28.4793 651.165 28.302C651.315 28.1153 651.417 27.9193 651.473 27.714C651.539 27.4993 651.571 27.294 651.571 27.098C651.571 26.9113 651.539 26.7153 651.473 26.51C651.417 26.3047 651.315 26.1087 651.165 25.922C651.025 25.7353 650.834 25.5813 650.591 25.46C650.349 25.3387 650.05 25.278 649.695 25.278H648.155V28.932H649.611ZM651.333 29.8L653.965 34H652.229L649.555 29.842L651.333 29.8Z" fill="black"/>
</g>
<rect id="PasarOwi_L006" x="2.54869" y="128.76" width="135.632" height="107.201" rx="7.2" fill="#D9D9D9"/>
<rect id="PasarOwi_L008" x="166.157" y="174.005" width="150.702" height="33.4894" rx="7.2" fill="#D9D9D9"/>
<rect id="PasarOwi_L007" x="166.157" y="128.76" width="150.702" height="33.4894" rx="7.2" fill="#D9D9D9"/>
<rect id="PasarOwi_L009" x="344.836" y="128.76" width="150.702" height="33.4894" rx="7.2" fill="#D9D9D9"/>
<rect id="PasarOwi_L002" x="150.895" y="0.406189" width="135.632" height="60.281" rx="7.2" fill="#D9D9D9"/>
<rect id="PasarOwi_L003" x="301.789" y="0.406189" width="135.632" height="60.281" rx="7.2" fill="#D9D9D9"/>
<rect id="PasarOwi_L011" y="300.719" width="209.309" height="60.281" rx="7.2" fill="#D9D9D9"/>
<rect id="PasarOwi_L012" x="235.904" y="267.475" width="66.9789" height="60.281" rx="7.2" fill="#D9D9D9"/>
<rect id="PasarOwi_L013" x="318.719" y="240.438" width="108.537" height="60.281" rx="7.2" fill="#D9D9D9"/>
<rect id="PasarOwi_L010" x="735.354" y="85.2581" width="66.9789" height="150.702" rx="7.2" fill="#D9D9D9"/>
<rect id="PasarOwi_L015" x="582.513" y="310.766" width="100.468" height="50.2341" rx="7.2" fill="#D9D9D9"/>
<g id="PasarOwi_L014">
<rect id="[NAMA PASAR]_[ID]_3" x="446.384" y="238.199" width="117" height="121" rx="8" fill="#B5FF9F"/>
<path id="ID_3" d="M483.759 304.199V294.017H485.295V302.877H489.909V304.199H483.759ZM494.742 294.017V304.199H493.201V295.559H493.141L490.705 297.15V295.678L493.246 294.017H494.742ZM502.97 304.199V305.462H496.502V304.199H502.97ZM506.838 304.368C506.053 304.365 505.381 304.158 504.825 303.747C504.268 303.336 503.842 302.738 503.547 301.952C503.252 301.167 503.105 300.22 503.105 299.113C503.105 298.01 503.252 297.067 503.547 296.285C503.845 295.502 504.273 294.906 504.83 294.495C505.39 294.084 506.059 293.878 506.838 293.878C507.617 293.878 508.285 294.085 508.842 294.5C509.399 294.911 509.824 295.507 510.119 296.29C510.418 297.068 510.567 298.01 510.567 299.113C510.567 300.224 510.419 301.172 510.124 301.957C509.829 302.739 509.404 303.338 508.847 303.752C508.29 304.163 507.62 304.368 506.838 304.368ZM506.838 303.041C507.528 303.041 508.066 302.705 508.454 302.032C508.845 301.359 509.041 300.386 509.041 299.113C509.041 298.268 508.951 297.554 508.772 296.971C508.596 296.384 508.343 295.94 508.011 295.638C507.683 295.333 507.292 295.181 506.838 295.181C506.152 295.181 505.614 295.519 505.222 296.195C504.831 296.871 504.634 297.844 504.631 299.113C504.631 299.962 504.719 300.679 504.894 301.266C505.073 301.849 505.327 302.292 505.655 302.593C505.983 302.892 506.377 303.041 506.838 303.041ZM516.193 294.017V304.199H514.652V295.559H514.593L512.157 297.15V295.678L514.697 294.017H516.193ZM518.734 302.211V300.968L523.134 294.017H524.113V295.847H523.492L520.345 300.829V300.908H526.375V302.211H518.734ZM523.561 304.199V301.833L523.571 301.266V294.017H525.028V304.199H523.561Z" fill="black" fill-opacity="0.8"/>
</g>
<g id="PasarOwi_L005">
<rect id="[NAMA PASAR]_[ID]_4" x="673" y="1" width="130" height="60" rx="8" fill="#B5FF9F"/>
<path id="ID_4" d="M686.537 36.5V26.3182H690.166C690.958 26.3182 691.614 26.4624 692.135 26.7507C692.655 27.0391 693.044 27.4335 693.303 27.9339C693.561 28.4311 693.691 28.9912 693.691 29.6143C693.691 30.2408 693.56 30.8042 693.298 31.3047C693.039 31.8018 692.648 32.1963 692.125 32.4879C691.604 32.7763 690.95 32.9205 690.161 32.9205H687.665V31.6179H690.022C690.522 31.6179 690.928 31.5317 691.24 31.3594C691.551 31.1837 691.78 30.9451 691.926 30.6435C692.072 30.3419 692.145 29.9988 692.145 29.6143C692.145 29.2299 692.072 28.8885 691.926 28.5902C691.78 28.2919 691.55 28.0582 691.235 27.8892C690.923 27.7202 690.512 27.6357 690.002 27.6357H688.073V36.5H686.537ZM697.526 36.669C697.042 36.669 696.605 36.5795 696.214 36.4006C695.823 36.2183 695.513 35.9548 695.284 35.6101C695.059 35.2654 694.946 34.8428 694.946 34.3423C694.946 33.9115 695.029 33.5568 695.195 33.2784C695.36 33 695.584 32.7796 695.866 32.6172C696.147 32.4548 696.462 32.3321 696.81 32.2493C697.158 32.1664 697.513 32.1035 697.874 32.0604C698.332 32.0073 698.703 31.9643 698.988 31.9311C699.273 31.8946 699.48 31.8366 699.609 31.7571C699.739 31.6776 699.803 31.5483 699.803 31.3693V31.3345C699.803 30.9003 699.681 30.5639 699.435 30.3253C699.193 30.0866 698.832 29.9673 698.352 29.9673C697.851 29.9673 697.457 30.0784 697.168 30.3004C696.883 30.5192 696.686 30.7628 696.577 31.0312L695.18 30.7131C695.345 30.2491 695.587 29.8745 695.906 29.5895C696.227 29.3011 696.597 29.0923 697.014 28.9631C697.432 28.8305 697.871 28.7642 698.332 28.7642C698.637 28.7642 698.96 28.8007 699.301 28.8736C699.646 28.9432 699.967 29.0724 700.266 29.2614C700.567 29.4503 700.814 29.7204 701.006 30.0717C701.199 30.4197 701.295 30.8722 701.295 31.429V36.5H699.843V35.456H699.783C699.687 35.6482 699.543 35.8371 699.351 36.0227C699.159 36.2083 698.912 36.3625 698.61 36.4851C698.308 36.6077 697.947 36.669 697.526 36.669ZM697.849 35.4759C698.26 35.4759 698.612 35.3946 698.903 35.2322C699.198 35.0698 699.422 34.8577 699.575 34.5959C699.73 34.3307 699.808 34.0473 699.808 33.7457V32.7614C699.755 32.8144 699.652 32.8641 699.5 32.9105C699.351 32.9536 699.18 32.9917 698.988 33.0249C698.796 33.0547 698.608 33.0829 698.426 33.1094C698.244 33.1326 698.091 33.1525 697.969 33.169C697.68 33.2055 697.417 33.2668 697.178 33.353C696.943 33.4392 696.754 33.5634 696.612 33.7259C696.472 33.8849 696.403 34.0971 696.403 34.3622C696.403 34.7301 696.539 35.0085 696.81 35.1974C697.082 35.383 697.429 35.4759 697.849 35.4759ZM708.997 30.728L707.65 30.9666C707.593 30.7943 707.504 30.6302 707.381 30.4744C707.262 30.3187 707.099 30.1911 706.894 30.0916C706.689 29.9922 706.432 29.9425 706.123 29.9425C705.702 29.9425 705.351 30.0369 705.069 30.2259C704.788 30.4115 704.647 30.6518 704.647 30.9467C704.647 31.2019 704.741 31.4074 704.93 31.5632C705.119 31.719 705.424 31.8466 705.845 31.946L707.058 32.2244C707.761 32.3868 708.284 32.6371 708.629 32.9751C708.974 33.3132 709.146 33.7524 709.146 34.2926C709.146 34.75 709.014 35.1577 708.748 35.5156C708.487 35.8703 708.12 36.1487 707.65 36.3509C707.182 36.553 706.64 36.6541 706.024 36.6541C705.169 36.6541 704.471 36.4718 703.931 36.1072C703.391 35.7393 703.059 35.2173 702.937 34.5412L704.373 34.3224C704.463 34.697 704.647 34.9804 704.925 35.1726C705.204 35.3615 705.567 35.456 706.014 35.456C706.501 35.456 706.891 35.3549 707.182 35.1527C707.474 34.9472 707.62 34.697 707.62 34.402C707.62 34.1634 707.53 33.9628 707.351 33.8004C707.176 33.638 706.906 33.5154 706.541 33.4325L705.248 33.1491C704.536 32.9867 704.009 32.7282 703.667 32.3736C703.329 32.0189 703.16 31.5698 703.16 31.0263C703.16 30.5755 703.286 30.1811 703.538 29.843C703.79 29.505 704.138 29.2415 704.582 29.0526C705.026 28.8603 705.535 28.7642 706.108 28.7642C706.934 28.7642 707.583 28.9432 708.057 29.3011C708.531 29.6558 708.845 30.1314 708.997 30.728ZM713.003 36.669C712.519 36.669 712.081 36.5795 711.69 36.4006C711.299 36.2183 710.989 35.9548 710.761 35.6101C710.535 35.2654 710.423 34.8428 710.423 34.3423C710.423 33.9115 710.505 33.5568 710.671 33.2784C710.837 33 711.061 32.7796 711.342 32.6172C711.624 32.4548 711.939 32.3321 712.287 32.2493C712.635 32.1664 712.99 32.1035 713.351 32.0604C713.808 32.0073 714.179 31.9643 714.464 31.9311C714.75 31.8946 714.957 31.8366 715.086 31.7571C715.215 31.6776 715.28 31.5483 715.28 31.3693V31.3345C715.28 30.9003 715.157 30.5639 714.912 30.3253C714.67 30.0866 714.309 29.9673 713.828 29.9673C713.328 29.9673 712.933 30.0784 712.645 30.3004C712.36 30.5192 712.163 30.7628 712.053 31.0312L710.656 30.7131C710.822 30.2491 711.064 29.8745 711.382 29.5895C711.704 29.3011 712.073 29.0923 712.491 28.9631C712.908 28.8305 713.348 28.7642 713.808 28.7642C714.113 28.7642 714.436 28.8007 714.778 28.8736C715.122 28.9432 715.444 29.0724 715.742 29.2614C716.044 29.4503 716.291 29.7204 716.483 30.0717C716.675 30.4197 716.771 30.8722 716.771 31.429V36.5H715.32V35.456H715.26C715.164 35.6482 715.02 35.8371 714.827 36.0227C714.635 36.2083 714.388 36.3625 714.087 36.4851C713.785 36.6077 713.424 36.669 713.003 36.669ZM713.326 35.4759C713.737 35.4759 714.088 35.3946 714.38 35.2322C714.675 35.0698 714.899 34.8577 715.051 34.5959C715.207 34.3307 715.285 34.0473 715.285 33.7457V32.7614C715.232 32.8144 715.129 32.8641 714.977 32.9105C714.827 32.9536 714.657 32.9917 714.464 33.0249C714.272 33.0547 714.085 33.0829 713.903 33.1094C713.72 33.1326 713.568 33.1525 713.445 33.169C713.157 33.2055 712.893 33.2668 712.655 33.353C712.42 33.4392 712.231 33.5634 712.088 33.7259C711.949 33.8849 711.879 34.0971 711.879 34.3622C711.879 34.7301 712.015 35.0085 712.287 35.1974C712.559 35.383 712.905 35.4759 713.326 35.4759ZM718.751 36.5V28.8636H720.188V30.0767H720.268C720.407 29.6657 720.652 29.3426 721.003 29.1072C721.358 28.8686 721.759 28.7493 722.206 28.7493C722.299 28.7493 722.409 28.7526 722.535 28.7592C722.664 28.7659 722.765 28.7741 722.838 28.7841V30.206C722.778 30.1894 722.672 30.1712 722.52 30.1513C722.367 30.1281 722.215 30.1165 722.062 30.1165C721.711 30.1165 721.398 30.1911 721.123 30.3402C720.851 30.486 720.635 30.6899 720.476 30.9517C720.317 31.2102 720.238 31.5052 720.238 31.8366V36.5H718.751ZM733.088 31.4091C733.088 32.4962 732.889 33.4309 732.491 34.2131C732.094 34.992 731.549 35.5919 730.856 36.0128C730.166 36.4304 729.383 36.6392 728.504 36.6392C727.623 36.6392 726.835 36.4304 726.143 36.0128C725.453 35.5919 724.91 34.9903 724.512 34.2081C724.114 33.4259 723.915 32.4929 723.915 31.4091C723.915 30.322 724.114 29.389 724.512 28.6101C724.91 27.8279 725.453 27.228 726.143 26.8104C726.835 26.3894 727.623 26.179 728.504 26.179C729.383 26.179 730.166 26.3894 730.856 26.8104C731.549 27.228 732.094 27.8279 732.491 28.6101C732.889 29.389 733.088 30.322 733.088 31.4091ZM731.567 31.4091C731.567 30.5805 731.433 29.8828 731.164 29.3161C730.899 28.746 730.534 28.3151 730.07 28.0234C729.61 27.7285 729.088 27.581 728.504 27.581C727.918 27.581 727.394 27.7285 726.933 28.0234C726.473 28.3151 726.108 28.746 725.839 29.3161C725.574 29.8828 725.442 30.5805 725.442 31.4091C725.442 32.2377 725.574 32.937 725.839 33.5071C726.108 34.0739 726.473 34.5047 726.933 34.7997C727.394 35.0914 727.918 35.2372 728.504 35.2372C729.088 35.2372 729.61 35.0914 730.07 34.7997C730.534 34.5047 730.899 34.0739 731.164 33.5071C731.433 32.937 731.567 32.2377 731.567 31.4091ZM736.54 36.5L734.292 28.8636H735.829L737.325 34.4716H737.4L738.901 28.8636H740.437L741.929 34.4467H742.003L743.49 28.8636H745.026L742.784 36.5H741.268L739.716 30.9865H739.602L738.051 36.5H736.54ZM746.437 36.5V28.8636H747.923V36.5H746.437ZM747.188 27.6854C746.929 27.6854 746.707 27.5992 746.521 27.4268C746.339 27.2512 746.248 27.0424 746.248 26.8004C746.248 26.5552 746.339 26.3464 746.521 26.174C746.707 25.9983 746.929 25.9105 747.188 25.9105C747.446 25.9105 747.666 25.9983 747.849 26.174C748.034 26.3464 748.127 26.5552 748.127 26.8004C748.127 27.0424 748.034 27.2512 747.849 27.4268C747.666 27.5992 747.446 27.6854 747.188 27.6854ZM755.938 36.5V37.7628H749.469V36.5H755.938ZM757.042 36.5V26.3182H758.579V35.1776H763.192V36.5H757.042ZM768.35 36.669C767.565 36.6657 766.894 36.4586 766.337 36.0476C765.78 35.6366 765.354 35.0384 765.059 34.2528C764.764 33.4673 764.617 32.5211 764.617 31.4141C764.617 30.3104 764.764 29.3674 765.059 28.5852C765.357 27.803 765.785 27.2064 766.342 26.7955C766.902 26.3845 767.571 26.179 768.35 26.179C769.129 26.179 769.797 26.3861 770.354 26.8004C770.911 27.2114 771.337 27.808 771.632 28.5902C771.93 29.3691 772.079 30.3104 772.079 31.4141C772.079 32.5244 771.932 33.4723 771.637 34.2578C771.342 35.04 770.916 35.6383 770.359 36.0526C769.802 36.4635 769.133 36.669 768.35 36.669ZM768.35 35.3416C769.04 35.3416 769.578 35.0052 769.966 34.3324C770.357 33.6596 770.553 32.6868 770.553 31.4141C770.553 30.5689 770.463 29.8546 770.284 29.2713C770.109 28.6847 769.855 28.2405 769.524 27.9389C769.195 27.634 768.804 27.4815 768.35 27.4815C767.664 27.4815 767.126 27.8196 766.735 28.4957C766.343 29.1719 766.146 30.1446 766.143 31.4141C766.143 32.2625 766.231 32.9801 766.406 33.5668C766.585 34.1501 766.839 34.5926 767.167 34.8942C767.495 35.1925 767.89 35.3416 768.35 35.3416ZM777.387 36.669C776.602 36.6657 775.931 36.4586 775.374 36.0476C774.817 35.6366 774.391 35.0384 774.096 34.2528C773.801 33.4673 773.654 32.5211 773.654 31.4141C773.654 30.3104 773.801 29.3674 774.096 28.5852C774.395 27.803 774.822 27.2064 775.379 26.7955C775.939 26.3845 776.609 26.179 777.387 26.179C778.166 26.179 778.834 26.3861 779.391 26.8004C779.948 27.2114 780.374 27.808 780.669 28.5902C780.967 29.3691 781.116 30.3104 781.116 31.4141C781.116 32.5244 780.969 33.4723 780.674 34.2578C780.379 35.04 779.953 35.6383 779.396 36.0526C778.839 36.4635 778.17 36.669 777.387 36.669ZM777.387 35.3416C778.077 35.3416 778.615 35.0052 779.003 34.3324C779.394 33.6596 779.59 32.6868 779.59 31.4141C779.59 30.5689 779.5 29.8546 779.321 29.2713C779.146 28.6847 778.892 28.2405 778.561 27.9389C778.233 27.634 777.842 27.4815 777.387 27.4815C776.701 27.4815 776.163 27.8196 775.772 28.4957C775.381 29.1719 775.183 30.1446 775.18 31.4141C775.18 32.2625 775.268 32.9801 775.444 33.5668C775.623 34.1501 775.876 34.5926 776.204 34.8942C776.532 35.1925 776.927 35.3416 777.387 35.3416ZM786.241 36.6392C785.617 36.6392 785.057 36.5199 784.56 36.2812C784.066 36.0393 783.672 35.7079 783.377 35.2869C783.082 34.866 782.925 34.3854 782.905 33.8452H784.396C784.433 34.2827 784.626 34.6423 784.978 34.924C785.329 35.2057 785.75 35.3466 786.241 35.3466C786.632 35.3466 786.978 35.2571 787.28 35.0781C787.585 34.8958 787.823 34.6456 787.996 34.3274C788.171 34.0092 788.259 33.6463 788.259 33.2386C788.259 32.8243 788.17 32.4548 787.991 32.13C787.812 31.8052 787.565 31.55 787.25 31.3643C786.938 31.1787 786.58 31.0843 786.176 31.081C785.868 31.081 785.558 31.134 785.246 31.2401C784.935 31.3461 784.683 31.4853 784.491 31.6577L783.084 31.4489L783.655 26.3182H789.253V27.6357H784.933L784.61 30.4844H784.67C784.868 30.2921 785.132 30.1314 785.46 30.0021C785.791 29.8729 786.146 29.8082 786.524 29.8082C787.144 29.8082 787.696 29.9557 788.18 30.2507C788.667 30.5457 789.05 30.9484 789.328 31.4588C789.61 31.9659 789.749 32.5492 789.746 33.2088C789.749 33.8684 789.6 34.4567 789.298 34.9737C789 35.4908 788.586 35.8984 788.055 36.1967C787.528 36.4917 786.923 36.6392 786.241 36.6392Z" fill="black" fill-opacity="0.8"/>
</g>
<rect id="PasarOwi_L016" x="735.215" y="260.532" width="66.9789" height="100.468" rx="7.2" fill="#D9D9D9"/>
<rect id="PasarOwi_L004" x="452.683" y="0.406189" width="66.9789" height="60.281" rx="7.2" fill="#D9D9D9"/>
</g>
</svg>
