<svg width="643" height="289" viewBox="0 0 643 289" fill="none" xmlns="http://www.w3.org/2000/svg">
<g id="PasarOWI">
<g id="In/Out">
<rect x="428.5" y="0.5" width="99.8" height="47" stroke="#D9D9D9" stroke-linecap="round"/>
<path id="ID" d="M434.31 26.5V18.1H434.322L438.645 24.2264L438.13 24.1144L442.43 18.1H442.453V26.5H441.266V20.7992L441.344 21.4152L438.342 25.66H438.32L435.262 21.4152L435.464 20.8552V26.5H434.31ZM443.905 26.5L447.478 18.044H447.545L451.118 26.5H449.751L447.153 19.9144L448.015 19.3432L445.081 26.5H443.905ZM446.078 23.4536H448.967L449.382 24.484H445.719L446.078 23.4536ZM456.81 19.9256C456.526 19.7763 456.22 19.6493 455.891 19.5448C455.563 19.4403 455.245 19.388 454.939 19.388C454.521 19.388 454.189 19.4851 453.942 19.6792C453.696 19.8659 453.573 20.1235 453.573 20.452C453.573 20.6835 453.655 20.8851 453.819 21.0568C453.983 21.2285 454.196 21.3779 454.458 21.5048C454.719 21.6317 454.995 21.7512 455.286 21.8632C455.533 21.9528 455.775 22.0611 456.014 22.188C456.261 22.3075 456.481 22.4568 456.675 22.636C456.877 22.8152 457.034 23.0392 457.146 23.308C457.265 23.5693 457.325 23.8904 457.325 24.2712C457.325 24.7043 457.217 25.0963 457 25.4472C456.791 25.7981 456.485 26.0781 456.082 26.2872C455.686 26.4888 455.204 26.5896 454.637 26.5896C454.293 26.5896 453.957 26.5523 453.629 26.4776C453.308 26.3955 453.002 26.2909 452.71 26.164C452.427 26.0296 452.169 25.884 451.938 25.7272L452.475 24.7976C452.654 24.9245 452.86 25.0477 453.091 25.1672C453.323 25.2792 453.562 25.3688 453.808 25.436C454.062 25.5032 454.301 25.5368 454.525 25.5368C454.771 25.5368 455.014 25.4957 455.253 25.4136C455.492 25.324 455.69 25.1896 455.846 25.0104C456.003 24.8237 456.082 24.5811 456.082 24.2824C456.082 24.0285 456.011 23.8157 455.869 23.644C455.734 23.4648 455.551 23.3117 455.32 23.1848C455.096 23.0579 454.853 22.9459 454.592 22.8488C454.338 22.7517 454.081 22.6435 453.819 22.524C453.558 22.4045 453.315 22.2627 453.091 22.0984C452.867 21.9267 452.684 21.7176 452.542 21.4712C452.408 21.2173 452.341 20.9075 452.341 20.5416C452.341 20.1085 452.442 19.7315 452.643 19.4104C452.852 19.0819 453.14 18.8243 453.506 18.6376C453.871 18.4509 454.293 18.3464 454.771 18.324C455.316 18.324 455.79 18.3912 456.194 18.5256C456.597 18.66 456.955 18.8205 457.269 19.0072L456.81 19.9256ZM460.17 23.5992C460.17 23.9427 460.256 24.2525 460.428 24.5288C460.599 24.8051 460.827 25.0253 461.111 25.1896C461.394 25.3539 461.712 25.436 462.063 25.436C462.436 25.436 462.768 25.3539 463.06 25.1896C463.351 25.0253 463.578 24.8051 463.743 24.5288C463.914 24.2525 464 23.9427 464 23.5992V18.3688H465.176V23.6328C465.176 24.2227 465.038 24.7416 464.762 25.1896C464.486 25.6301 464.112 25.9736 463.642 26.22C463.172 26.4664 462.645 26.5896 462.063 26.5896C461.495 26.5896 460.976 26.4664 460.506 26.22C460.036 25.9736 459.662 25.6301 459.386 25.1896C459.117 24.7416 458.983 24.2227 458.983 23.6328V18.3688H460.17V23.5992ZM468.551 21.572L468.518 21.9752L468.686 21.74L471.866 18.3688H473.412L470.052 21.8968L473.569 26.5H472.057L469.178 22.6472L468.551 23.2632V26.5H467.342V18.3688H468.551V21.572ZM478.246 18.1336C477.723 19.5672 477.197 20.9971 476.667 22.4232C476.144 23.8493 475.618 25.2792 475.087 26.7128H474.046C474.576 25.2792 475.102 23.8493 475.625 22.4232C476.155 20.9971 476.682 19.5672 477.204 18.1336H478.246ZM480.593 21.572L480.56 21.9752L480.728 21.74L483.909 18.3688H485.454L482.094 21.8968L485.611 26.5H484.099L481.221 22.6472L480.593 23.2632V26.5H479.384V18.3688H480.593V21.572ZM487.04 18.3688H492.382V19.5224H488.238V21.8408H491.923V22.9944H488.238V25.3464H492.539V26.5H487.04V18.3688ZM494.379 18.3688H495.578V25.3464H499.643V26.5H494.379V18.3688ZM502.465 23.5992C502.465 23.9427 502.551 24.2525 502.723 24.5288C502.895 24.8051 503.122 25.0253 503.406 25.1896C503.69 25.3539 504.007 25.436 504.358 25.436C504.731 25.436 505.064 25.3539 505.355 25.1896C505.646 25.0253 505.874 24.8051 506.038 24.5288C506.21 24.2525 506.296 23.9427 506.296 23.5992V18.3688H507.472V23.6328C507.472 24.2227 507.334 24.7416 507.057 25.1896C506.781 25.6301 506.408 25.9736 505.937 26.22C505.467 26.4664 504.94 26.5896 504.358 26.5896C503.791 26.5896 503.272 26.4664 502.801 26.22C502.331 25.9736 501.958 25.6301 501.681 25.1896C501.412 24.7416 501.278 24.2227 501.278 23.6328V18.3688H502.465V23.5992ZM508.655 26.5L512.228 18.044H512.295L515.868 26.5H514.501L511.903 19.9144L512.765 19.3432L509.831 26.5H508.655ZM510.828 23.4536H513.717L514.132 24.484H510.469L510.828 23.4536ZM519.555 18.3688C519.98 18.3688 520.372 18.4285 520.731 18.548C521.097 18.66 521.407 18.8243 521.66 19.0408C521.922 19.2573 522.123 19.5261 522.265 19.8472C522.415 20.1608 522.489 20.5267 522.489 20.9448C522.489 21.2659 522.441 21.5832 522.344 21.8968C522.247 22.2104 522.09 22.4941 521.873 22.748C521.657 23.0019 521.373 23.2072 521.022 23.364C520.671 23.5133 520.234 23.588 519.712 23.588H518.524V26.5H517.326V18.3688H519.555ZM519.689 22.4456C519.995 22.4456 520.249 22.3971 520.451 22.3C520.66 22.2029 520.82 22.0835 520.932 21.9416C521.052 21.7923 521.134 21.6355 521.179 21.4712C521.231 21.2995 521.257 21.1352 521.257 20.9784C521.257 20.8291 521.231 20.6723 521.179 20.508C521.134 20.3437 521.052 20.1869 520.932 20.0376C520.82 19.8883 520.667 19.7651 520.473 19.668C520.279 19.5709 520.04 19.5224 519.756 19.5224H518.524V22.4456H519.689ZM521.067 23.14L523.172 26.5H521.784L519.644 23.1736L521.067 23.14Z" fill="#D9D9D9"/>
</g>
<rect id="L006" x="2.03894" y="103.008" width="108.506" height="85.7608" rx="5.76" fill="#D9D9D9"/>
<rect id="L008" x="132.926" y="139.204" width="120.562" height="26.7915" rx="5.76" fill="#D9D9D9"/>
<rect id="L007" x="132.926" y="103.008" width="120.562" height="26.7915" rx="5.76" fill="#D9D9D9"/>
<rect id="L009" x="275.869" y="103.008" width="120.562" height="26.7915" rx="5.76" fill="#D9D9D9"/>
<rect id="L002" x="120.716" y="0.324951" width="108.506" height="48.2248" rx="5.76" fill="#D9D9D9"/>
<rect id="L001" width="100" height="57" rx="5.76" fill="#D9D9D9"/>
<rect id="L003" x="241.431" y="0.324951" width="108.506" height="48.2248" rx="5.76" fill="#D9D9D9"/>
<rect id="L011" y="240.575" width="167.447" height="48.2248" rx="5.76" fill="#D9D9D9"/>
<rect id="L012" x="184" y="225" width="53.5831" height="48.2248" rx="5.76" fill="#D9D9D9"/>
<rect id="L013" x="254.975" y="238" width="86.8296" height="48.2248" rx="5.76" fill="#D9D9D9"/>
<rect id="L010" x="588.283" y="68.2065" width="53.5831" height="120.562" rx="5.76" fill="#D9D9D9"/>
<rect id="L015" x="466.01" y="248.613" width="80.3746" height="40.1873" rx="5.76" fill="#D9D9D9"/>
<rect id="L014" x="357.107" y="190.559" width="93.6" height="96.8" rx="5.76" fill="#D9D9D9"/>
<rect id="L005" x="538.4" y="0.800049" width="104" height="48" rx="5.76" fill="#D9D9D9"/>
<rect id="L016" x="588.172" y="208.425" width="53.5831" height="80.3746" rx="5.76" fill="#D9D9D9"/>
<rect id="L004" x="362.147" y="0.324951" width="53.5831" height="48.2248" rx="5.76" fill="#D9D9D9"/>
</g>
</svg>
