<svg width="643" height="291" viewBox="0 0 643 291" fill="none" xmlns="http://www.w3.org/2000/svg">
<path d="M0 8.11669C0 4.93553 2.57884 2.35669 5.76 2.35669H94.7083C97.8894 2.35669 100.468 4.93553 100.468 8.11669V53.5287C100.468 56.7099 97.8894 59.2887 94.7083 59.2887H5.76C2.57884 59.2887 0 56.7099 0 53.5287V8.11669Z" fill="#D9D9D9"/>
<rect x="428" y="2" width="100.8" height="48" rx="6.4" stroke="#D9D9D9" stroke-width="2.4" stroke-linecap="round" stroke-dasharray="6.4 6.4"/>
<path d="M434.31 28.5V20.1H434.322L438.645 26.2264L438.13 26.1144L442.43 20.1H442.453V28.5H441.266V22.7992L441.344 23.4152L438.342 27.66H438.32L435.262 23.4152L435.464 22.8552V28.5H434.31ZM443.905 28.5L447.478 20.044H447.545L451.118 28.5H449.751L447.153 21.9144L448.015 21.3432L445.081 28.5H443.905ZM446.078 25.4536H448.967L449.382 26.484H445.719L446.078 25.4536ZM456.81 21.9256C456.526 21.7763 456.22 21.6493 455.891 21.5448C455.563 21.4403 455.245 21.388 454.939 21.388C454.521 21.388 454.189 21.4851 453.942 21.6792C453.696 21.8659 453.573 22.1235 453.573 22.452C453.573 22.6835 453.655 22.8851 453.819 23.0568C453.983 23.2285 454.196 23.3779 454.458 23.5048C454.719 23.6317 454.995 23.7512 455.286 23.8632C455.533 23.9528 455.775 24.0611 456.014 24.188C456.261 24.3075 456.481 24.4568 456.675 24.636C456.877 24.8152 457.034 25.0392 457.146 25.308C457.265 25.5693 457.325 25.8904 457.325 26.2712C457.325 26.7043 457.217 27.0963 457 27.4472C456.791 27.7981 456.485 28.0781 456.082 28.2872C455.686 28.4888 455.204 28.5896 454.637 28.5896C454.293 28.5896 453.957 28.5523 453.629 28.4776C453.308 28.3955 453.002 28.2909 452.71 28.164C452.427 28.0296 452.169 27.884 451.938 27.7272L452.475 26.7976C452.654 26.9245 452.86 27.0477 453.091 27.1672C453.323 27.2792 453.562 27.3688 453.808 27.436C454.062 27.5032 454.301 27.5368 454.525 27.5368C454.771 27.5368 455.014 27.4957 455.253 27.4136C455.492 27.324 455.69 27.1896 455.846 27.0104C456.003 26.8237 456.082 26.5811 456.082 26.2824C456.082 26.0285 456.011 25.8157 455.869 25.644C455.734 25.4648 455.551 25.3117 455.32 25.1848C455.096 25.0579 454.853 24.9459 454.592 24.8488C454.338 24.7517 454.081 24.6435 453.819 24.524C453.558 24.4045 453.315 24.2627 453.091 24.0984C452.867 23.9267 452.684 23.7176 452.542 23.4712C452.408 23.2173 452.341 22.9075 452.341 22.5416C452.341 22.1085 452.442 21.7315 452.643 21.4104C452.852 21.0819 453.14 20.8243 453.506 20.6376C453.871 20.4509 454.293 20.3464 454.771 20.324C455.316 20.324 455.79 20.3912 456.194 20.5256C456.597 20.66 456.955 20.8205 457.269 21.0072L456.81 21.9256ZM460.17 25.5992C460.17 25.9427 460.256 26.2525 460.428 26.5288C460.599 26.8051 460.827 27.0253 461.111 27.1896C461.394 27.3539 461.712 27.436 462.063 27.436C462.436 27.436 462.768 27.3539 463.06 27.1896C463.351 27.0253 463.578 26.8051 463.743 26.5288C463.914 26.2525 464 25.9427 464 25.5992V20.3688H465.176V25.6328C465.176 26.2227 465.038 26.7416 464.762 27.1896C464.486 27.6301 464.112 27.9736 463.642 28.22C463.172 28.4664 462.645 28.5896 462.063 28.5896C461.495 28.5896 460.976 28.4664 460.506 28.22C460.036 27.9736 459.662 27.6301 459.386 27.1896C459.117 26.7416 458.983 26.2227 458.983 25.6328V20.3688H460.17V25.5992ZM468.551 23.572L468.518 23.9752L468.686 23.74L471.866 20.3688H473.412L470.052 23.8968L473.569 28.5H472.057L469.178 24.6472L468.551 25.2632V28.5H467.342V20.3688H468.551V23.572ZM478.246 20.1336C477.723 21.5672 477.197 22.9971 476.667 24.4232C476.144 25.8493 475.618 27.2792 475.087 28.7128H474.046C474.576 27.2792 475.102 25.8493 475.625 24.4232C476.155 22.9971 476.682 21.5672 477.204 20.1336H478.246ZM480.593 23.572L480.56 23.9752L480.728 23.74L483.909 20.3688H485.454L482.094 23.8968L485.611 28.5H484.099L481.221 24.6472L480.593 25.2632V28.5H479.384V20.3688H480.593V23.572ZM487.04 20.3688H492.382V21.5224H488.238V23.8408H491.923V24.9944H488.238V27.3464H492.539V28.5H487.04V20.3688ZM494.379 20.3688H495.578V27.3464H499.643V28.5H494.379V20.3688ZM502.465 25.5992C502.465 25.9427 502.551 26.2525 502.723 26.5288C502.895 26.8051 503.122 27.0253 503.406 27.1896C503.69 27.3539 504.007 27.436 504.358 27.436C504.731 27.436 505.064 27.3539 505.355 27.1896C505.646 27.0253 505.874 26.8051 506.038 26.5288C506.21 26.2525 506.296 25.9427 506.296 25.5992V20.3688H507.472V25.6328C507.472 26.2227 507.334 26.7416 507.057 27.1896C506.781 27.6301 506.408 27.9736 505.937 28.22C505.467 28.4664 504.94 28.5896 504.358 28.5896C503.791 28.5896 503.272 28.4664 502.801 28.22C502.331 27.9736 501.958 27.6301 501.681 27.1896C501.412 26.7416 501.278 26.2227 501.278 25.6328V20.3688H502.465V25.5992ZM508.655 28.5L512.228 20.044H512.295L515.868 28.5H514.501L511.903 21.9144L512.765 21.3432L509.831 28.5H508.655ZM510.828 25.4536H513.717L514.132 26.484H510.469L510.828 25.4536ZM519.555 20.3688C519.98 20.3688 520.372 20.4285 520.731 20.548C521.097 20.66 521.407 20.8243 521.66 21.0408C521.922 21.2573 522.123 21.5261 522.265 21.8472C522.415 22.1608 522.489 22.5267 522.489 22.9448C522.489 23.2659 522.441 23.5832 522.344 23.8968C522.247 24.2104 522.09 24.4941 521.873 24.748C521.657 25.0019 521.373 25.2072 521.022 25.364C520.671 25.5133 520.234 25.588 519.712 25.588H518.524V28.5H517.326V20.3688H519.555ZM519.689 24.4456C519.995 24.4456 520.249 24.3971 520.451 24.3C520.66 24.2029 520.82 24.0835 520.932 23.9416C521.052 23.7923 521.134 23.6355 521.179 23.4712C521.231 23.2995 521.257 23.1352 521.257 22.9784C521.257 22.8291 521.231 22.6723 521.179 22.508C521.134 22.3437 521.052 22.1869 520.932 22.0376C520.82 21.8883 520.667 21.7651 520.473 21.668C520.279 21.5709 520.04 21.5224 519.756 21.5224H518.524V24.4456H519.689ZM521.067 25.14L523.172 28.5H521.784L519.644 25.1736L521.067 25.14Z" fill="#D9D9D9"/>
<rect x="2.03894" y="105.008" width="108.506" height="85.7608" rx="5.76" fill="#D9D9D9"/>
<rect x="132.926" y="141.204" width="120.562" height="26.7915" rx="5.76" fill="#D9D9D9"/>
<rect x="132.926" y="105.008" width="120.562" height="26.7915" rx="5.76" fill="#D9D9D9"/>
<rect x="275.869" y="105.008" width="120.562" height="26.7915" rx="5.76" fill="#D9D9D9"/>
<rect x="120.716" y="2.32495" width="108.506" height="48.2248" rx="5.76" fill="#D9D9D9"/>
<rect x="241.431" y="2.32495" width="108.506" height="48.2248" rx="5.76" fill="#D9D9D9"/>
<rect y="242.575" width="167.447" height="48.2248" rx="5.76" fill="#D9D9D9"/>
<rect x="188.723" y="215.98" width="53.5831" height="48.2248" rx="5.76" fill="#D9D9D9"/>
<rect x="254.975" y="194.35" width="86.8296" height="48.2248" rx="5.76" fill="#D9D9D9"/>
<rect x="588.283" y="70.2065" width="53.5831" height="120.562" rx="5.76" fill="#D9D9D9"/>
<rect x="466.01" y="250.613" width="80.3746" height="40.1873" rx="5.76" fill="#D9D9D9"/>
<rect x="357.107" y="192.559" width="93.6" height="96.8" rx="6" fill="#D9D9D9"/>
<rect x="538.4" y="2.80005" width="104" height="48" rx="4" fill="#D9D9D9"/>
<rect x="588.172" y="210.425" width="53.5831" height="80.3746" rx="5.76" fill="#D9D9D9"/>
<rect x="362.147" y="2.32495" width="53.5831" height="48.2248" rx="5.76" fill="#D9D9D9"/>
</svg>
